<svg width="1024" height="1024" viewBox="0 0 1024 1024" fill="none" xmlns="http://www.w3.org/2000/svg">
<g clip-path="url(#clip0_6862_20847)">
<rect width="1024" height="1024" fill="#2D3A4F"/>
<path d="M199.421 658.574C199.421 658.574 236.306 656.962 237.098 605.662V358.717C237.098 358.717 241.115 323.452 194.583 323.452V309.029H285.213L465.651 558.378V369.915C465.651 369.915 462.455 323.423 424.749 323.423V309H533V323.423C533 323.423 492.098 321.019 490.485 369.124V681H469.638L259.528 398.79L258.766 604.841C258.766 604.841 261.962 656.962 300.459 660.978C300.459 660.978 298.847 672.206 299.668 672.997H193V658.574" fill="white"/>
<path d="M743.058 476.248C819.28 447.358 811.271 393.624 811.271 393.624C808.865 315.81 732.643 311 732.643 311H552.093V323.847C549.687 323.847 594.634 326.252 594.634 326.252V621.463C589.823 655.956 552.093 656.748 552.093 656.748V672H739.86C827.319 667.19 829.725 589.376 829.725 589.376C843.367 496.31 743.058 476.248 743.058 476.248ZM686.904 323.847C686.904 323.847 740.653 333.467 738.247 397.642C738.247 397.642 741.445 474.664 661.204 475.456V335.872C661.204 335.872 658.006 319.828 686.904 323.847ZM720.585 652.73C720.585 652.73 679.276 666.193 665.516 635.747C662.495 629.06 661.438 620.994 661.204 609.409L660.411 490.679C660.411 490.679 757.493 485.077 753.503 571.69C753.503 571.719 759.899 641.496 720.585 652.73Z" fill="white"/>
<path d="M247 932L496.086 551.213L390.256 525.179L754 92L542.283 457.512L647.702 479.442L247 932Z" fill="#231F20"/>
<path d="M252 928L508.387 548.782L402.559 522.759L747 106L554.585 455.15L660.002 477.041L252 928Z" fill="url(#paint0_linear_6862_20847)"/>
<path d="M295.085 780.336V785.32H285.644V825.311H284.178L280.748 820.825V798.66H273.037C269.724 798.66 267.408 799.276 266.118 800.537C264.828 801.797 264.154 803.498 264.154 805.667C264.154 807.984 264.975 810.505 266.646 813.231C268.317 815.958 271.044 819.506 274.796 823.874L273.741 824.988C268.493 819.183 265.063 814.727 263.421 811.678C261.779 808.599 260.958 805.521 260.958 802.442C260.958 799.804 261.603 797.722 262.922 796.11C264.242 794.526 266.47 793.735 269.666 793.735H280.719V785.379H256.883V780.395H295.085V780.336Z" fill="white" stroke="white" stroke-width="0.2" stroke-miterlimit="10"/>
<path d="M335.368 780.336V785.32H325.898V825.311H324.491L321.002 820.708V806.547H308.219V812.528C308.219 813.935 307.809 814.639 307.017 814.639C306.226 814.639 304.437 812.938 301.623 809.537C298.808 806.136 297.401 803.85 297.401 802.706C297.401 801.973 297.899 801.621 298.867 801.621H303.352V785.35H294.146V780.366H335.368V780.336ZM308.249 801.592H321.031V785.32H308.249V801.592Z" fill="white" stroke="white" stroke-width="0.2" stroke-miterlimit="10"/>
<path d="M376.502 780.336V785.32H367.09V825.311H365.683L362.194 820.825V802.413C359.262 804.084 356.976 804.905 355.363 804.905C353.135 804.905 350.526 804.26 347.564 802.97C346.274 805.961 344.984 808.189 343.636 809.625C345.659 812.44 347.564 814.991 349.323 817.248C351.083 819.535 352.695 821.529 354.161 823.229L353.252 824.431C350.232 820.825 347.682 817.688 345.6 814.991C343.518 812.293 341.935 810.094 340.821 808.335C338.593 804.788 337.45 802.003 337.45 799.98C337.45 798.778 337.684 797.898 338.182 797.282C338.681 796.696 339.414 796.373 340.381 796.373C341.525 796.373 342.815 796.784 344.31 797.576C345.278 795.963 345.776 793.735 345.776 790.891C345.776 789.161 345.336 787.314 344.457 785.35H334.459V780.366H376.502V780.336ZM362.224 785.32H348.444C349.177 787.549 349.529 789.923 349.529 792.503C349.529 794.351 349.235 796.608 348.678 799.276C351.669 800.449 354.132 801.035 356.008 801.035C357.884 801.035 359.409 800.478 360.523 799.393C361.637 798.308 362.194 797.077 362.194 795.699V785.32H362.224Z" fill="white" stroke="white" stroke-width="0.2" stroke-miterlimit="10"/>
<path d="M396.849 780.336V785.32H387.437V825.311H386.294L382.571 820.414V785.32H375.651V780.336H384.271L379.551 773.358C377.44 770.251 375.446 768.257 373.57 767.407C371.693 766.557 368.996 766.117 365.419 766.117H361.197L359.204 760.136H362.575C367.413 760.136 370.843 760.898 372.925 762.393C375.006 763.889 377.469 766.85 380.313 771.248L386.206 780.336H396.849Z" fill="white" stroke="white" stroke-width="0.2" stroke-miterlimit="10"/>
<path d="M454.811 780.336V785.32H445.37V825.311H443.963L440.474 820.708V806.547H427.691V812.528C427.691 813.935 427.281 814.639 426.489 814.639C425.698 814.639 423.909 812.938 421.095 809.537C418.28 806.136 416.873 803.85 416.873 802.706C416.873 801.973 417.371 801.621 418.339 801.621H422.825V785.35H413.619V780.366H454.811V780.336ZM427.721 801.592H440.504V785.32H427.721V801.592Z" fill="white" stroke="white" stroke-width="0.2" stroke-miterlimit="10"/>
<path d="M475.158 780.336V785.32H465.747V825.311H464.603L460.88 820.414V785.32H453.961V780.336H475.158Z" fill="white" stroke="white" stroke-width="0.2" stroke-miterlimit="10"/>
<path d="M521.305 785.32H491.928V780.336H521.305V785.32ZM522.126 798.631H512.509C515.295 801.827 516.673 804.788 516.673 807.456C516.673 809.919 515.94 811.971 514.503 813.583C513.066 815.196 511.219 816.017 509.02 816.017C506.294 816.017 503.597 814.199 500.987 810.593C498.378 806.957 496.062 801.973 494.039 795.611L495.27 794.761C497.645 800.888 499.932 805.11 502.101 807.426C504.271 809.743 506.177 810.857 507.877 810.857C509.108 810.857 510.135 810.417 510.926 809.567C511.718 808.716 512.099 807.573 512.099 806.166C512.099 805.11 511.747 803.85 511.073 802.384C510.369 800.918 508.082 798.015 504.154 793.647H522.126V798.631Z" fill="white" stroke="white" stroke-width="0.2" stroke-miterlimit="10"/>
<path d="M559.507 780.336V785.32H550.066V825.311H549.421L545.199 820.532V810.417C543.323 812.117 540.978 812.997 538.134 812.997C536.081 812.997 533.97 812.176 531.83 810.564C529.69 808.951 526.787 805.814 523.152 801.182V800.478C526.377 800.156 528.81 799.188 530.423 797.605C532.035 796.022 532.856 793.823 532.856 791.008C532.856 788.78 532.123 786.874 530.687 785.32H520.425V780.336H559.507ZM545.17 785.32H532.505C535.466 787.607 536.961 790.451 536.961 793.823C536.961 796.579 536.199 798.866 534.674 800.654C533.15 802.442 530.863 803.732 527.814 804.524C529.28 806.048 530.657 807.192 531.977 807.925C533.296 808.658 534.498 809.039 535.642 809.039C537.723 809.039 539.6 808.394 541.359 807.104C543.118 805.814 544.173 804.641 544.584 803.586C544.994 802.53 545.199 800.478 545.199 797.429V785.32H545.17Z" fill="white" stroke="white" stroke-width="0.2" stroke-miterlimit="10"/>
<path d="M579.854 780.336V785.32H570.442V825.311H569.299L565.576 820.414V785.32H558.656V780.336H567.276L562.556 773.358C560.445 770.251 558.451 768.257 556.575 767.407C554.698 766.557 552.001 766.117 548.424 766.117H544.202L542.209 760.136H545.58C550.418 760.136 553.848 760.898 555.93 762.393C558.011 763.889 560.474 766.85 563.318 771.248L569.211 780.336H579.854Z" fill="white" stroke="white" stroke-width="0.2" stroke-miterlimit="10"/>
<path d="M600.171 780.336V785.32H590.76V825.193H589.353L585.864 820.708V785.32H578.945V780.336H586.919C584.398 777.61 583.137 774.561 583.137 771.248C583.137 767.319 584.955 764.299 588.532 762.218C591.405 760.576 594.747 759.755 598.559 759.755C604.598 759.755 610.11 761.455 615.094 764.915C620.078 768.345 624.535 773.505 628.434 780.366H626.323C622.365 775.088 618.143 771.13 613.628 768.521C609.143 765.882 604.364 764.563 599.35 764.563C595.568 764.563 592.724 765.267 590.819 766.703C588.913 768.14 588.004 770.221 588.004 773.036C588.004 775.557 588.649 777.991 589.969 780.366H600.171V780.336Z" fill="white" stroke="white" stroke-width="0.2" stroke-miterlimit="10"/>
<path d="M637.435 780.336V785.32H627.994V825.311H626.529L623.098 820.825V798.66H615.388C612.075 798.66 609.758 799.276 608.468 800.537C607.178 801.797 606.504 803.498 606.504 805.667C606.504 807.984 607.325 810.505 608.996 813.231C610.667 815.958 613.394 819.506 617.147 823.874L616.091 824.988C610.843 819.183 607.413 814.727 605.771 811.678C604.129 808.599 603.308 805.521 603.308 802.442C603.308 799.804 603.953 797.722 605.273 796.11C606.592 794.526 608.82 793.735 612.016 793.735H623.069V785.379H599.233V780.395H637.435V780.336Z" fill="white" stroke="white" stroke-width="0.2" stroke-miterlimit="10"/>
<path d="M675.168 780.336V785.32H665.757V825.193H664.291L660.86 820.62V785.291H650.511C651.391 797.018 651.83 803.674 651.83 805.257C651.83 807.749 651.566 809.567 651.068 810.71C650.57 811.853 649.925 812.44 649.162 812.44C648.547 812.44 647.902 812.088 647.198 811.355C646.494 810.651 644.999 808.628 642.771 805.286C640.543 801.973 639.399 799.804 639.399 798.865C639.399 797.81 639.986 797.282 641.188 797.282C641.569 797.282 642.097 797.341 642.83 797.429C643.563 797.517 644.149 797.575 644.559 797.575C646.143 797.575 646.934 796.901 646.934 795.582V785.291H636.526V780.307H675.168V780.336Z" fill="white" stroke="white" stroke-width="0.2" stroke-miterlimit="10"/>
<path d="M673.438 767.114L672.382 768.374C669.363 765.56 666.841 764.153 664.818 764.153C663.176 764.153 661.798 764.768 660.714 766.029C659.629 767.29 659.042 768.726 659.042 770.427C659.042 771.687 659.6 773.212 660.743 775C661.886 776.789 663.558 778.812 665.786 781.069H663.675C660.919 778.9 658.837 776.701 657.459 774.502C656.081 772.303 655.378 770.075 655.378 767.817C655.378 765.56 656.023 763.713 657.283 762.218C658.544 760.752 660.362 760.019 662.707 760.019C664.378 760.019 666.02 760.488 667.574 761.455C669.157 762.393 671.122 764.27 673.438 767.114Z" fill="white" stroke="white" stroke-width="0.2" stroke-miterlimit="10"/>
<path d="M715.451 780.336V785.32H706.011V825.311H704.603L701.114 820.708V806.547H688.332V812.528C688.332 813.935 687.921 814.639 687.13 814.639C686.338 814.639 684.55 812.938 681.735 809.537C678.92 806.136 677.513 803.85 677.513 802.706C677.513 801.973 678.012 801.621 678.979 801.621H683.465V785.35H674.259V780.366H715.451V780.336ZM688.361 801.592H701.144V785.32H688.361V801.592Z" fill="white" stroke="white" stroke-width="0.2" stroke-miterlimit="10"/>
<path d="M753.653 780.336V785.32H744.212V825.311H743.567L739.346 820.532V810.417C737.469 812.117 735.124 812.997 732.28 812.997C730.228 812.997 728.117 812.176 725.976 810.564C723.836 808.951 720.934 805.814 717.298 801.182V800.478C720.523 800.156 722.957 799.188 724.569 797.605C726.182 796.022 727.002 793.823 727.002 791.008C727.002 788.78 726.27 786.874 724.833 785.32H714.572V780.336H753.653ZM739.346 785.32H726.68C729.641 787.607 731.136 790.451 731.136 793.823C731.136 796.579 730.374 798.866 728.85 800.654C727.325 802.442 725.038 803.732 721.989 804.524C723.455 806.048 724.833 807.192 726.152 807.925C727.472 808.658 728.674 809.039 729.817 809.039C731.899 809.039 733.775 808.394 735.534 807.104C737.293 805.814 738.349 804.641 738.759 803.586C739.17 802.53 739.375 800.478 739.375 797.429V785.32H739.346Z" fill="white" stroke="white" stroke-width="0.2" stroke-miterlimit="10"/>
</g>
<defs>
<linearGradient id="paint0_linear_6862_20847" x1="734.12" y1="170.304" x2="320.143" y2="844.177" gradientUnits="userSpaceOnUse">
<stop stop-color="#F28A2C"/>
<stop offset="0.2019" stop-color="#FFD221"/>
<stop offset="0.4406" stop-color="#F07F2D"/>
<stop offset="0.9998" stop-color="#E93229"/>
</linearGradient>
<clipPath id="clip0_6862_20847">
<rect width="1024" height="1024" fill="white"/>
</clipPath>
</defs>
</svg>
